<svg xmlns="http://www.w3.org/2000/svg" width="31" height="31" viewBox="0 0 31 31">
  <g id="vuesax_linear_setting-4" data-name="vuesax/linear/setting-4" transform="translate(-428 -188)">
    <g id="setting-4" transform="translate(428 188)">
      <path id="Vector" d="M7.75,0H0" transform="translate(20.667 8.396)" fill="none" stroke="#fff" stroke-linecap="round" stroke-linejoin="round" stroke-width="1.5"/>
      <path id="Vector-2" data-name="Vector" d="M5.167,0H0" transform="translate(2.583 8.396)" fill="none" stroke="#fff" stroke-linecap="round" stroke-linejoin="round" stroke-width="1.5"/>
      <path id="Vector-3" data-name="Vector" d="M9.042,4.521A4.521,4.521,0,1,1,4.521,0,4.521,4.521,0,0,1,9.042,4.521Z" transform="translate(8.396 3.875)" fill="none" stroke="#fff" stroke-linecap="round" stroke-linejoin="round" stroke-width="1.5"/>
      <path id="Vector-4" data-name="Vector" d="M5.167,0H0" transform="translate(23.25 22.604)" fill="none" stroke="#fff" stroke-linecap="round" stroke-linejoin="round" stroke-width="1.5"/>
      <path id="Vector-5" data-name="Vector" d="M7.75,0H0" transform="translate(2.583 22.604)" fill="none" stroke="#fff" stroke-linecap="round" stroke-linejoin="round" stroke-width="1.5"/>
      <path id="Vector-6" data-name="Vector" d="M9.042,4.521A4.521,4.521,0,1,1,4.521,0,4.521,4.521,0,0,1,9.042,4.521Z" transform="translate(13.563 18.083)" fill="none" stroke="#fff" stroke-linecap="round" stroke-linejoin="round" stroke-width="1.5"/>
      <path id="Vector-7" data-name="Vector" d="M0,0H31V31H0Z" fill="none" opacity="0"/>
    </g>
  </g>
</svg>
